<?xml version="1.0" encoding="UTF-8" standalone="no"?>
<!-- Created with Inkscape (http://www.inkscape.org/) -->

<svg
   xmlns:dc="http://purl.org/dc/elements/1.1/"
   xmlns:cc="http://creativecommons.org/ns#"
   xmlns:rdf="http://www.w3.org/1999/02/22-rdf-syntax-ns#"
   xmlns:svg="http://www.w3.org/2000/svg"
   xmlns="http://www.w3.org/2000/svg"
   xmlns:sodipodi="http://sodipodi.sourceforge.net/DTD/sodipodi-0.dtd"
   xmlns:inkscape="http://www.inkscape.org/namespaces/inkscape"
   width="500"
   height="250"
   viewBox="0 0 500.00001 250"
   id="svg2"
   version="1.1"
   inkscape:version="0.91 r13725"
   sodipodi:docname="yalindrawing.svg"
   inkscape:export-filename="/home/kpierce/Desktop/ens-rev/figures/yalindrawing.png"
   inkscape:export-xdpi="90"
   inkscape:export-ydpi="90">
  <defs
     id="defs4">
    <marker
       inkscape:stockid="Arrow1Mend"
       orient="auto"
       refY="0.0"
       refX="0.0"
       id="Arrow1Mend"
       style="overflow:visible;"
       inkscape:isstock="true">
      <path
         id="path4255"
         d="M 0.0,0.0 L 5.0,-5.0 L -12.5,0.0 L 5.0,5.0 L 0.0,0.0 z "
         style="fill-rule:evenodd;stroke:#000000;stroke-width:1pt;stroke-opacity:1;fill:#000000;fill-opacity:1"
         transform="scale(0.4) rotate(180) translate(10,0)" />
    </marker>
    <marker
       inkscape:stockid="Arrow1Lend"
       orient="auto"
       refY="0.0"
       refX="0.0"
       id="marker12374"
       style="overflow:visible;"
       inkscape:isstock="true">
      <path
         id="path12376"
         d="M 0.0,0.0 L 5.0,-5.0 L -12.5,0.0 L 5.0,5.0 L 0.0,0.0 z "
         style="fill-rule:evenodd;stroke:#000000;stroke-width:1pt;stroke-opacity:1;fill:#000000;fill-opacity:1"
         transform="scale(0.8) rotate(180) translate(12.5,0)" />
    </marker>
    <marker
       inkscape:stockid="Arrow1Lend"
       orient="auto"
       refY="0.0"
       refX="0.0"
       id="marker12292"
       style="overflow:visible;"
       inkscape:isstock="true">
      <path
         id="path12294"
         d="M 0.0,0.0 L 5.0,-5.0 L -12.5,0.0 L 5.0,5.0 L 0.0,0.0 z "
         style="fill-rule:evenodd;stroke:#000000;stroke-width:1pt;stroke-opacity:1;fill:#000000;fill-opacity:1"
         transform="scale(0.8) rotate(180) translate(12.5,0)" />
    </marker>
    <marker
       inkscape:stockid="Arrow1Send"
       orient="auto"
       refY="0.0"
       refX="0.0"
       id="Arrow1Send"
       style="overflow:visible;"
       inkscape:isstock="true">
      <path
         id="path4261"
         d="M 0.0,0.0 L 5.0,-5.0 L -12.5,0.0 L 5.0,5.0 L 0.0,0.0 z "
         style="fill-rule:evenodd;stroke:#000000;stroke-width:1pt;stroke-opacity:1;fill:#000000;fill-opacity:1"
         transform="scale(0.2) rotate(180) translate(6,0)" />
    </marker>
    <marker
       inkscape:stockid="Arrow1Sstart"
       orient="auto"
       refY="0.0"
       refX="0.0"
       id="Arrow1Sstart"
       style="overflow:visible"
       inkscape:isstock="true">
      <path
         id="path4258"
         d="M 0.0,0.0 L 5.0,-5.0 L -12.5,0.0 L 5.0,5.0 L 0.0,0.0 z "
         style="fill-rule:evenodd;stroke:#000000;stroke-width:1pt;stroke-opacity:1;fill:#000000;fill-opacity:1"
         transform="scale(0.2) translate(6,0)" />
    </marker>
    <marker
       inkscape:stockid="Arrow1Mstart"
       orient="auto"
       refY="0.0"
       refX="0.0"
       id="marker4580"
       style="overflow:visible"
       inkscape:isstock="true">
      <path
         id="path4582"
         d="M 0.0,0.0 L 5.0,-5.0 L -12.5,0.0 L 5.0,5.0 L 0.0,0.0 z "
         style="fill-rule:evenodd;stroke:#000000;stroke-width:1pt;stroke-opacity:1;fill:#000000;fill-opacity:1"
         transform="scale(0.4) translate(10,0)" />
    </marker>
    <marker
       inkscape:stockid="Arrow1Mstart"
       orient="auto"
       refY="0.0"
       refX="0.0"
       id="Arrow1Mstart"
       style="overflow:visible"
       inkscape:isstock="true">
      <path
         id="path4252"
         d="M 0.0,0.0 L 5.0,-5.0 L -12.5,0.0 L 5.0,5.0 L 0.0,0.0 z "
         style="fill-rule:evenodd;stroke:#000000;stroke-width:1pt;stroke-opacity:1;fill:#000000;fill-opacity:1"
         transform="scale(0.4) translate(10,0)" />
    </marker>
    <marker
       inkscape:stockid="Arrow1Lstart"
       orient="auto"
       refY="0.0"
       refX="0.0"
       id="Arrow1Lstart"
       style="overflow:visible"
       inkscape:isstock="true">
      <path
         id="path4246"
         d="M 0.0,0.0 L 5.0,-5.0 L -12.5,0.0 L 5.0,5.0 L 0.0,0.0 z "
         style="fill-rule:evenodd;stroke:#000000;stroke-width:1pt;stroke-opacity:1;fill:#000000;fill-opacity:1"
         transform="scale(0.8) translate(12.5,0)" />
    </marker>
    <marker
       inkscape:stockid="Arrow1Lend"
       orient="auto"
       refY="0.0"
       refX="0.0"
       id="Arrow1Lend"
       style="overflow:visible;"
       inkscape:isstock="true">
      <path
         id="path4249"
         d="M 0.0,0.0 L 5.0,-5.0 L -12.5,0.0 L 5.0,5.0 L 0.0,0.0 z "
         style="fill-rule:evenodd;stroke:#000000;stroke-width:1pt;stroke-opacity:1;fill:#000000;fill-opacity:1"
         transform="scale(0.8) rotate(180) translate(12.5,0)" />
    </marker>
    <marker
       inkscape:stockid="Arrow1Sstart"
       orient="auto"
       refY="0"
       refX="0"
       id="Arrow1Sstart-3"
       style="overflow:visible"
       inkscape:isstock="true">
      <path
         inkscape:connector-curvature="0"
         id="path4258-6"
         d="M 0,0 5,-5 -12.5,0 5,5 0,0 Z"
         style="fill:#000000;fill-opacity:1;fill-rule:evenodd;stroke:#000000;stroke-width:1pt;stroke-opacity:1"
         transform="matrix(0.2,0,0,0.2,1.2,0)" />
    </marker>
    <marker
       inkscape:stockid="Arrow1Send"
       orient="auto"
       refY="0"
       refX="0"
       id="Arrow1Send-0"
       style="overflow:visible"
       inkscape:isstock="true">
      <path
         inkscape:connector-curvature="0"
         id="path4261-6"
         d="M 0,0 5,-5 -12.5,0 5,5 0,0 Z"
         style="fill:#000000;fill-opacity:1;fill-rule:evenodd;stroke:#000000;stroke-width:1pt;stroke-opacity:1"
         transform="matrix(-0.2,0,0,-0.2,-1.2,0)" />
    </marker>
    <marker
       inkscape:stockid="Arrow1Sstart"
       orient="auto"
       refY="0"
       refX="0"
       id="Arrow1Sstart-9"
       style="overflow:visible"
       inkscape:isstock="true">
      <path
         inkscape:connector-curvature="0"
         id="path4258-4"
         d="M 0,0 5,-5 -12.5,0 5,5 0,0 Z"
         style="fill:#000000;fill-opacity:1;fill-rule:evenodd;stroke:#000000;stroke-width:1pt;stroke-opacity:1"
         transform="matrix(0.2,0,0,0.2,1.2,0)" />
    </marker>
    <marker
       inkscape:stockid="Arrow1Send"
       orient="auto"
       refY="0"
       refX="0"
       id="Arrow1Send-7"
       style="overflow:visible"
       inkscape:isstock="true">
      <path
         inkscape:connector-curvature="0"
         id="path4261-8"
         d="M 0,0 5,-5 -12.5,0 5,5 0,0 Z"
         style="fill:#000000;fill-opacity:1;fill-rule:evenodd;stroke:#000000;stroke-width:1pt;stroke-opacity:1"
         transform="matrix(-0.2,0,0,-0.2,-1.2,0)" />
    </marker>
    <marker
       inkscape:stockid="Arrow1Mend"
       orient="auto"
       refY="0"
       refX="0"
       id="Arrow1Mend-5"
       style="overflow:visible"
       inkscape:isstock="true">
      <path
         inkscape:connector-curvature="0"
         id="path4255-0"
         d="M 0,0 5,-5 -12.5,0 5,5 0,0 Z"
         style="fill:#000000;fill-opacity:1;fill-rule:evenodd;stroke:#000000;stroke-width:1pt;stroke-opacity:1"
         transform="matrix(-0.4,0,0,-0.4,-4,0)" />
    </marker>
    <marker
       inkscape:stockid="Arrow1Mend"
       orient="auto"
       refY="0"
       refX="0"
       id="Arrow1Mend-6"
       style="overflow:visible"
       inkscape:isstock="true">
      <path
         inkscape:connector-curvature="0"
         id="path4255-1"
         d="M 0,0 5,-5 -12.5,0 5,5 0,0 Z"
         style="fill:#000000;fill-opacity:1;fill-rule:evenodd;stroke:#000000;stroke-width:1pt;stroke-opacity:1"
         transform="matrix(-0.4,0,0,-0.4,-4,0)" />
    </marker>
    <marker
       inkscape:stockid="Arrow1Mend"
       orient="auto"
       refY="0"
       refX="0"
       id="Arrow1Mend-63"
       style="overflow:visible"
       inkscape:isstock="true">
      <path
         inkscape:connector-curvature="0"
         id="path4255-2"
         d="M 0,0 5,-5 -12.5,0 5,5 0,0 Z"
         style="fill:#000000;fill-opacity:1;fill-rule:evenodd;stroke:#000000;stroke-width:1pt;stroke-opacity:1"
         transform="matrix(-0.4,0,0,-0.4,-4,0)" />
    </marker>
  </defs>
  <sodipodi:namedview
     id="base"
     pagecolor="#ffffff"
     bordercolor="#666666"
     borderopacity="1.0"
     inkscape:pageopacity="1"
     inkscape:pageshadow="2"
     inkscape:zoom="0.9899495"
     inkscape:cx="117.34495"
     inkscape:cy="195.13464"
     inkscape:document-units="px"
     inkscape:current-layer="layer1"
     showgrid="true"
     units="px"
     inkscape:window-width="1920"
     inkscape:window-height="1004"
     inkscape:window-x="0"
     inkscape:window-y="24"
     inkscape:window-maximized="1">
    <inkscape:grid
       type="xygrid"
       id="grid4133"
       spacingx="5.0000001"
       spacingy="5"
       dotted="true" />
  </sodipodi:namedview>
  <metadata
     id="metadata7">
    <rdf:RDF>
      <cc:Work
         rdf:about="">
        <dc:format>image/svg+xml</dc:format>
        <dc:type
           rdf:resource="http://purl.org/dc/dcmitype/StillImage" />
        <dc:title></dc:title>
      </cc:Work>
    </rdf:RDF>
  </metadata>
  <g
     inkscape:label="Layer 1"
     inkscape:groupmode="layer"
     id="layer1"
     transform="translate(0,-802.36216)">
    <path
       style="fill:none;fill-rule:evenodd;stroke:#000000;stroke-width:3;stroke-linecap:butt;stroke-linejoin:miter;stroke-miterlimit:4;stroke-dasharray:none;stroke-opacity:1"
       d="m 25.178571,1004.5051 399.999999,0"
       id="path4135"
       inkscape:connector-curvature="0"
       inkscape:export-xdpi="207.22211"
       inkscape:export-ydpi="207.22211" />
    <path
       style="fill:none;fill-rule:evenodd;stroke:#000000;stroke-width:1px;stroke-linecap:butt;stroke-linejoin:miter;stroke-opacity:1"
       d="m 60,977.36216 400,0"
       id="path4137"
       inkscape:connector-curvature="0"
       inkscape:export-xdpi="207.22211"
       inkscape:export-ydpi="207.22211" />
    <path
       style="fill:none;fill-rule:evenodd;stroke:#000000;stroke-width:1px;stroke-linecap:round;stroke-linejoin:bevel;stroke-opacity:1"
       d="M 100.4061,977.23589 50.406102,1012.2359"
       id="path4139"
       inkscape:connector-curvature="0"
       inkscape:export-xdpi="207.22211"
       inkscape:export-ydpi="207.22211" />
    <path
       style="fill:none;fill-rule:evenodd;stroke:#000000;stroke-width:1px;stroke-linecap:round;stroke-linejoin:miter;stroke-opacity:1"
       d="m 175.00255,977.28666 -50,34.99994"
       id="path4139-3"
       inkscape:connector-curvature="0"
       inkscape:export-xdpi="207.22211"
       inkscape:export-ydpi="207.22211" />
    <path
       style="fill:none;fill-rule:evenodd;stroke:#000000;stroke-width:1px;stroke-linecap:round;stroke-linejoin:miter;stroke-opacity:1"
       d="m 250.2056,977.26063 -50,35.00007"
       id="path4139-6"
       inkscape:connector-curvature="0"
       inkscape:export-xdpi="207.22211"
       inkscape:export-ydpi="207.22211" />
    <path
       style="fill:none;fill-rule:evenodd;stroke:#000000;stroke-width:1px;stroke-linecap:round;stroke-linejoin:miter;stroke-opacity:1"
       d="m 325.38136,977.28666 -50,34.99994"
       id="path4139-7"
       inkscape:connector-curvature="0"
       inkscape:export-xdpi="207.22211"
       inkscape:export-ydpi="207.22211" />
    <path
       style="fill:none;fill-rule:evenodd;stroke:#000000;stroke-width:1px;stroke-linecap:round;stroke-linejoin:miter;stroke-opacity:1"
       d="m 400.38008,977.16039 -50,34.99991"
       id="path4139-5"
       inkscape:connector-curvature="0"
       inkscape:export-xdpi="207.22211"
       inkscape:export-ydpi="207.22211" />
    <text
       xml:space="preserve"
       style="font-style:normal;font-weight:normal;font-size:12.5px;line-height:100%;font-family:sans-serif;text-align:start;letter-spacing:0px;word-spacing:0px;writing-mode:lr-tb;text-anchor:start;fill:#000000;fill-opacity:1;stroke:none;stroke-width:1px;stroke-linecap:butt;stroke-linejoin:miter;stroke-opacity:1"
       x="121.06091"
       y="994.43329"
       id="text4183"
       sodipodi:linespacing="100%"
       inkscape:export-xdpi="207.22211"
       inkscape:export-ydpi="207.22211"><tspan
         sodipodi:role="line"
         id="tspan4185"
         x="121.06091"
         y="994.43329">V</tspan><tspan
         sodipodi:role="line"
         x="121.06091"
         y="1006.9333"
         id="tspan4187" /></text>
    <text
       xml:space="preserve"
       style="font-style:normal;font-weight:normal;font-size:12.5px;line-height:100%;font-family:sans-serif;text-align:start;letter-spacing:0px;word-spacing:0px;writing-mode:lr-tb;text-anchor:start;fill:#000000;fill-opacity:1;stroke:none;stroke-width:1px;stroke-linecap:butt;stroke-linejoin:miter;stroke-opacity:1"
       x="196.27011"
       y="993.87744"
       id="text4183-3"
       sodipodi:linespacing="100%"
       inkscape:export-xdpi="207.22211"
       inkscape:export-ydpi="207.22211"><tspan
         sodipodi:role="line"
         id="tspan4185-5"
         x="196.27011"
         y="993.87744">V</tspan><tspan
         sodipodi:role="line"
         x="196.27011"
         y="1006.3774"
         id="tspan4187-6" /></text>
    <text
       xml:space="preserve"
       style="font-style:normal;font-weight:normal;font-size:12.5px;line-height:100%;font-family:sans-serif;text-align:start;letter-spacing:0px;word-spacing:0px;writing-mode:lr-tb;text-anchor:start;fill:#000000;fill-opacity:1;stroke:none;stroke-width:1px;stroke-linecap:butt;stroke-linejoin:miter;stroke-opacity:1"
       x="270.50507"
       y="994.38251"
       id="text4183-2"
       sodipodi:linespacing="100%"
       inkscape:export-xdpi="207.22211"
       inkscape:export-ydpi="207.22211"><tspan
         sodipodi:role="line"
         id="tspan4185-9"
         x="270.50507"
         y="994.38251">V</tspan><tspan
         sodipodi:role="line"
         x="270.50507"
         y="1006.8825"
         id="tspan4187-1" /></text>
    <text
       xml:space="preserve"
       style="font-style:normal;font-weight:normal;font-size:12.5px;line-height:100%;font-family:sans-serif;text-align:start;letter-spacing:0px;word-spacing:0px;writing-mode:lr-tb;text-anchor:start;fill:#000000;fill-opacity:1;stroke:none;stroke-width:1px;stroke-linecap:butt;stroke-linejoin:miter;stroke-opacity:1"
       x="346.31656"
       y="994.54102"
       id="text4183-27"
       sodipodi:linespacing="100%"
       inkscape:export-xdpi="207.22211"
       inkscape:export-ydpi="207.22211"><tspan
         sodipodi:role="line"
         id="tspan4185-0"
         x="346.31656"
         y="994.54102">V</tspan><tspan
         sodipodi:role="line"
         x="346.31656"
         y="1007.041"
         id="tspan4187-9" /></text>
    <path
       style="fill:none;fill-rule:evenodd;stroke:#000000;stroke-width:1px;stroke-linecap:butt;stroke-linejoin:miter;stroke-opacity:1;marker-start:url(#Arrow1Sstart-3);marker-end:url(#Arrow1Send-0)"
       d="m 1.7550069,1.2527134 71.7603511,0"
       id="path4234-2"
       inkscape:connector-curvature="0" />
    <text
       xml:space="preserve"
       style="font-style:normal;font-weight:normal;font-size:12.5px;line-height:100%;font-family:sans-serif;text-align:start;letter-spacing:0px;word-spacing:0px;writing-mode:lr-tb;text-anchor:start;fill:#000000;fill-opacity:1;stroke:none;stroke-width:1px;stroke-linecap:butt;stroke-linejoin:miter;stroke-opacity:1"
       x="31.124763"
       y="14.87604"
       id="text4236-6"
       sodipodi:linespacing="100%"><tspan
         sodipodi:role="line"
         id="tspan4238-1"
         x="31.124763"
         y="14.87604">L</tspan><tspan
         sodipodi:role="line"
         x="31.124763"
         y="27.37604"
         id="tspan4240-8" /></text>
    <text
       xml:space="preserve"
       style="font-style:normal;font-weight:normal;font-size:12.5px;line-height:100%;font-family:sans-serif;text-align:start;letter-spacing:0px;word-spacing:0px;writing-mode:lr-tb;text-anchor:start;fill:#000000;fill-opacity:1;stroke:none;stroke-width:1px;stroke-linecap:butt;stroke-linejoin:miter;stroke-opacity:1"
       x="298.57144"
       y="1034.1478"
       id="text7040"
       sodipodi:linespacing="100%"
       inkscape:export-xdpi="207.22211"
       inkscape:export-ydpi="207.22211"><tspan
         sodipodi:role="line"
         id="tspan7042"
         x="298.57144"
         y="1034.1478">n=1</tspan><tspan
         sodipodi:role="line"
         x="298.57144"
         y="1046.6478"
         id="tspan7044" /></text>
    <text
       xml:space="preserve"
       style="font-style:normal;font-weight:normal;font-size:12.5px;line-height:100%;font-family:sans-serif;text-align:start;letter-spacing:0px;word-spacing:0px;writing-mode:lr-tb;text-anchor:start;fill:#000000;fill-opacity:1;stroke:none;stroke-width:1px;stroke-linecap:butt;stroke-linejoin:miter;stroke-opacity:1"
       x="223.92857"
       y="1034.1479"
       id="text7040-2"
       sodipodi:linespacing="100%"
       inkscape:export-xdpi="207.22211"
       inkscape:export-ydpi="207.22211"><tspan
         sodipodi:role="line"
         id="tspan7042-9"
         x="223.92857"
         y="1034.1479">n=2</tspan><tspan
         sodipodi:role="line"
         x="223.92857"
         y="1046.6479"
         id="tspan7044-3" /></text>
    <text
       xml:space="preserve"
       style="font-style:normal;font-weight:normal;font-size:12.5px;line-height:100%;font-family:sans-serif;text-align:start;letter-spacing:0px;word-spacing:0px;writing-mode:lr-tb;text-anchor:start;fill:#000000;fill-opacity:1;stroke:none;stroke-width:1px;stroke-linecap:butt;stroke-linejoin:miter;stroke-opacity:1"
       x="148.57143"
       y="1034.8622"
       id="text7067"
       sodipodi:linespacing="100%"
       inkscape:export-xdpi="207.22211"
       inkscape:export-ydpi="207.22211"><tspan
         sodipodi:role="line"
         id="tspan7069"
         x="148.57143"
         y="1034.8622">n=3</tspan></text>
    <text
       xml:space="preserve"
       style="font-style:normal;font-weight:normal;font-size:12.5px;line-height:100%;font-family:sans-serif;text-align:start;letter-spacing:0px;word-spacing:0px;writing-mode:lr-tb;text-anchor:start;fill:#000000;fill-opacity:1;stroke:none;stroke-width:1px;stroke-linecap:butt;stroke-linejoin:miter;stroke-opacity:1"
       x="74.642853"
       y="1033.7906"
       id="text7075"
       sodipodi:linespacing="100%"
       inkscape:export-xdpi="207.22211"
       inkscape:export-ydpi="207.22211"><tspan
         sodipodi:role="line"
         id="tspan7077"
         x="74.642853"
         y="1033.7906">n=...</tspan></text>
    <path
       style="fill:none;fill-rule:evenodd;stroke:#000000;stroke-width:1px;stroke-linecap:butt;stroke-linejoin:miter;stroke-opacity:1"
       d="m 360,1002.3622 0,-50.00004 40,-25 0,50"
       id="path7114"
       inkscape:connector-curvature="0"
       inkscape:export-xdpi="207.22211"
       inkscape:export-ydpi="207.22211" />
    <path
       style="fill:none;fill-rule:evenodd;stroke:#000000;stroke-width:1px;stroke-linecap:butt;stroke-linejoin:miter;stroke-opacity:1"
       d="m 360,1005.9732 0,-3.611"
       id="path7116"
       inkscape:connector-curvature="0"
       inkscape:export-xdpi="207.22211"
       inkscape:export-ydpi="207.22211" />
    <text
       xml:space="preserve"
       style="font-style:normal;font-weight:normal;font-size:12.5px;line-height:100%;font-family:sans-serif;text-align:start;letter-spacing:0px;word-spacing:0px;writing-mode:lr-tb;text-anchor:start;fill:#000000;fill-opacity:1;stroke:none;stroke-width:1px;stroke-linecap:butt;stroke-linejoin:miter;stroke-opacity:1"
       x="375"
       y="962.36218"
       id="text7118"
       sodipodi:linespacing="100%"
       inkscape:export-xdpi="207.22211"
       inkscape:export-ydpi="207.22211"><tspan
         sodipodi:role="line"
         id="tspan7120"
         x="375"
         y="962.36218">S</tspan><tspan
         sodipodi:role="line"
         x="375"
         y="974.86218"
         id="tspan7122" /></text>
    <path
       style="color:#000000;clip-rule:nonzero;display:inline;overflow:visible;visibility:visible;opacity:1;isolation:auto;mix-blend-mode:normal;color-interpolation:sRGB;color-interpolation-filters:linearRGB;solid-color:#000000;solid-opacity:1;fill:#ececec;fill-opacity:0.5;fill-rule:evenodd;stroke:none;stroke-width:3;stroke-linecap:round;stroke-linejoin:bevel;stroke-miterlimit:4;stroke-dasharray:none;stroke-dashoffset:0;stroke-opacity:1;color-rendering:auto;image-rendering:auto;shape-rendering:auto;text-rendering:auto;enable-background:accumulate"
       d="m 360.49911,188.09112 0,-12.50063 18.84115,0 c 15.86425,0 18.81193,0.0271 18.65625,0.1712 -0.10169,0.0942 -8.11766,5.71945 -17.81327,12.50064 l -17.62839,12.32943 -1.02787,0 -1.02787,0 0,-12.50064 z"
       id="path7126"
       inkscape:connector-curvature="0"
       transform="translate(0,802.36216)"
       inkscape:export-xdpi="207.22211"
       inkscape:export-ydpi="207.22211" />
    <path
       style="color:#000000;clip-rule:nonzero;display:inline;overflow:visible;visibility:visible;opacity:1;isolation:auto;mix-blend-mode:normal;color-interpolation:sRGB;color-interpolation-filters:linearRGB;solid-color:#000000;solid-opacity:1;fill:#ececec;fill-opacity:0.5;fill-rule:evenodd;stroke:none;stroke-width:3;stroke-linecap:round;stroke-linejoin:bevel;stroke-miterlimit:4;stroke-dasharray:none;stroke-dashoffset:0;stroke-opacity:1;color-rendering:auto;image-rendering:auto;shape-rendering:auto;text-rendering:auto;enable-background:accumulate"
       d="m 360.49911,162.4035 0,-12.05057 19.2876,-12.04752 c 10.60818,-6.62613 19.35863,-12.08797 19.44544,-12.13741 0.12603,-0.0718 0.15783,4.78394 0.15783,24.09809 l 0,24.18798 -19.44543,0 -19.44544,0 0,-12.05057 z m 19.95916,-2.42095 c 1.66039,-0.49174 2.33819,-2.33229 1.43879,-3.90699 -0.37381,-0.65447 -1.19045,-1.10091 -2.52072,-1.37802 -1.21565,-0.25323 -1.93099,-0.54047 -2.09112,-0.83967 -0.0652,-0.12188 -0.11859,-0.44271 -0.11859,-0.71296 0,-0.80527 0.70316,-1.30128 1.86764,-1.31742 0.84344,-0.0117 1.38876,0.0941 2.13636,0.41459 l 0.54168,0.23219 0,-0.67358 0,-0.67358 -0.59978,-0.17425 c -0.35656,-0.10359 -1.19271,-0.17424 -2.06201,-0.17424 -1.40466,0 -1.48631,0.0149 -2.07364,0.3788 -1.11575,0.69129 -1.52317,2.09784 -0.94855,3.2747 0.32941,0.67465 0.85605,1.01055 2.08531,1.33007 0.55559,0.14441 1.22068,0.31955 1.47798,0.38921 0.2573,0.0697 0.64084,0.27224 0.85231,0.45018 0.32966,0.27739 0.3845,0.40955 0.3845,0.92663 0,1.08674 -0.65953,1.54859 -2.1946,1.53681 -0.76829,-0.006 -1.65806,-0.22998 -2.37638,-0.59848 -0.18754,-0.0962 -0.37221,-0.17492 -0.41038,-0.17492 -0.0382,0 -0.0694,0.30647 -0.0694,0.68103 l 0,0.68104 0.91545,0.25622 c 1.14992,0.32186 2.81517,0.35398 3.76515,0.0726 z"
       id="path7128"
       inkscape:connector-curvature="0"
       transform="translate(0,802.36216)"
       inkscape:export-xdpi="207.22211"
       inkscape:export-ydpi="207.22211" />
    <path
       style="fill:none;fill-rule:evenodd;stroke:#000000;stroke-width:1px;stroke-linecap:butt;stroke-linejoin:miter;stroke-opacity:1"
       d="m 425.05172,1003.0722 c 0.16554,0.1347 0.30012,0.3397 0.49663,0.4037 0.0771,0.025 0.10419,-0.1467 0.17753,-0.1841 0.16398,-0.083 0.34867,-0.1015 0.5182,-0.17 0.23975,-0.096 0.45146,-0.274 0.69574,-0.3543 0.22524,-0.075 0.46072,-0.099 0.68854,-0.1627 0.17474,-0.049 0.34217,-0.1285 0.5182,-0.1701 2.84855,-0.517 -0.65255,0.2438 1.38428,-0.5172 0.27538,-0.1025 0.57713,-0.078 0.85888,-0.1558 0.12356,-0.034 0.23192,-0.1182 0.34787,-0.1772 0.2319,-0.1179 0.46382,-0.2361 0.69574,-0.3541 0.11596,-0.059 0.23191,-0.1182 0.34785,-0.1771 0.11594,-0.058 0.25429,-0.08 0.34789,-0.1771 0.0419,-0.043 -0.0347,-0.148 0.007,-0.1914 0.0935,-0.096 0.25431,-0.081 0.34785,-0.177 0.0419,-0.043 -0.013,-0.1316 0.007,-0.1913 0.0452,-0.1336 0.0912,-0.2784 0.18472,-0.37558 0.0419,-0.0425 0.12852,0.0497 0.17034,0.0104 0.0935,-0.0966 0.0912,-0.27831 0.18472,-0.37538 0.0935,-0.0969 0.24311,-0.0961 0.34787,-0.17713 0.13254,-0.10284 0.20838,-0.29368 0.35505,-0.36834 0.10372,-0.0528 0.24354,0.0809 0.34068,0.0142 0.10862,-0.0747 0.0912,-0.2784 0.18472,-0.37548 0.0935,-0.097 0.2543,-0.0802 0.34787,-0.1771 0.0935,-0.097 0.0912,-0.27839 0.18472,-0.37548 0.0935,-0.097 0.24309,-0.0958 0.34787,-0.17709 0.36422,-0.28265 0.70302,-0.80501 1.06517,-1.10516 0.16527,-0.13695 0.36015,-0.22433 0.5254,-0.36129 0.12963,-0.10744 0.23671,-0.24559 0.35506,-0.36838 0.17513,-0.12042 0.35643,-0.23017 0.5254,-0.3613 0.0662,-0.0515 0.11835,-0.1228 0.17753,-0.18418 0.2367,-0.24558 0.47341,-0.49119 0.71012,-0.73677 0.53257,-0.55257 1.06518,-1.10514 1.59775,-1.65772 0.2959,-0.30699 0.56837,-0.64515 0.88765,-0.92095 0.72148,-0.62319 0.36467,-0.12655 1.22114,-0.71551 0.13738,-0.0945 0.21767,-0.27391 0.35507,-0.36837 0.21721,-0.14939 0.4785,-0.20485 0.69573,-0.35423 0.13738,-0.0946 0.21384,-0.28132 0.35505,-0.36837 0.15787,-0.0973 0.37002,-0.055 0.5182,-0.17003 0.10479,-0.0814 0.08,-0.29414 0.18473,-0.37546 0.14819,-0.115 0.35422,-0.0865 0.5182,-0.17003 0.0734,-0.0373 0.11836,-0.12278 0.17753,-0.18419 0.11835,-0.12279 0.22252,-0.26552 0.35505,-0.36838 0.1048,-0.0813 0.2431,-0.0958 0.34788,-0.1771 0.13254,-0.10284 0.22251,-0.26553 0.35506,-0.36838 0.20686,-0.16052 0.65706,-0.27855 0.86608,-0.34714 1.21527,-0.39872 -0.28614,0.12356 1.21393,-0.52422 0.16802,-0.0726 0.35421,-0.0866 0.51821,-0.17002 0.18697,-0.0953 0.34336,-0.25465 0.52538,-0.3613 0.33869,-0.19844 0.69575,-0.35422 1.04361,-0.53132 0.34788,-0.17711 0.68398,-0.38719 1.04361,-0.53131 0.49573,-0.1987 0.45648,-0.0946 0.86607,-0.34715 0.17998,-0.11096 0.3454,-0.25031 0.52539,-0.36129 0.11162,-0.0689 0.23625,-0.10828 0.34787,-0.1771 0.18,-0.11096 0.33843,-0.2661 0.52539,-0.36129 0.16399,-0.0836 0.36035,-0.0727 0.51821,-0.17004 0.1412,-0.087 0.22252,-0.26551 0.35507,-0.36838 0.10478,-0.0814 0.2319,-0.11806 0.34786,-0.1771 0.17513,-0.12043 0.35643,-0.23017 0.5254,-0.36129 0.0662,-0.0515 0.11835,-0.12279 0.17753,-0.1842 0.17753,-0.18418 0.35505,-0.36838 0.53258,-0.55257 0.41425,-0.42977 0.82847,-0.85954 1.24271,-1.28933 0.0592,-0.0614 0.11836,-0.12281 0.17753,-0.18419 0.0567,0.002 0.12849,0.0505 0.17033,0.007 0.0935,-0.097 0.10984,-0.25977 0.18472,-0.37546 0.0474,-0.0732 0.1386,-0.10504 0.17754,-0.1842 0.0276,-0.0559 -0.0347,-0.14786 0.007,-0.19128 0.0935,-0.097 0.2543,-0.0802 0.34786,-0.1771 0.0837,-0.0868 -0.0407,-0.27061 0.0144,-0.38256 0.039,-0.0791 0.13859,-0.10504 0.17753,-0.18417 0.0738,-0.1502 -0.0523,-0.42365 0.0216,-0.57384 0.039,-0.0791 0.13859,-0.10503 0.17753,-0.18419 0.0276,-0.0559 -0.0204,-0.1353 0.007,-0.19128 0.0779,-0.15829 0.27717,-0.21008 0.35506,-0.36837 0.055,-0.11195 -0.0407,-0.27061 0.0144,-0.38255 0.19665,-0.39971 0.15843,0.0313 0.35506,-0.36839 0.0276,-0.0559 -0.0203,-0.13531 0.007,-0.19128 0.039,-0.0791 0.12315,-0.2503 0.17753,-0.18418 0.0544,0.0661 -0.0972,0.18752 -0.17753,0.18418 -0.0567,-0.002 0.005,-0.12752 0.007,-0.19127"
       id="path7206"
       inkscape:connector-curvature="0"
       inkscape:export-xdpi="207.22211"
       inkscape:export-ydpi="207.22211" />
    <path
       style="fill:none;fill-rule:evenodd;stroke:#000000;stroke-width:0.99999994px;stroke-linecap:butt;stroke-linejoin:miter;stroke-opacity:1"
       d="m 425.35918,1006.475 c 0.75162,0.3626 0.29306,-1.4439 0.87918,-1.7326 0.0954,-0.047 0.65524,0.048 0.70335,0 0.0415,-0.04 -0.0414,-0.1324 0,-0.1733 0.0829,-0.082 0.24682,0.052 0.35167,0 0.58318,-0.5747 -0.16578,0.081 0.35168,-0.1733 0.0741,-0.036 0.1017,-0.1367 0.17584,-0.1733 0.0524,-0.026 0.12341,0.026 0.17584,0 0.0741,-0.037 0.10169,-0.1367 0.17583,-0.1732 0.0524,-0.026 0.13439,0.04 0.17584,0 0.0414,-0.041 -0.0415,-0.1324 0,-0.1733 0.0829,-0.082 0.24683,0.052 0.35167,0 0.0741,-0.037 0.1017,-0.1367 0.17584,-0.1732 0.0524,-0.026 0.12023,0.019 0.17584,0 0.12434,-0.041 0.22733,-0.1325 0.35167,-0.1732 0.0556,-0.019 0.12023,0.019 0.17584,0 0.12433,-0.04 0.22734,-0.1325 0.35167,-0.1734 0.11121,-0.036 0.24683,0.052 0.35168,0 0.0741,-0.036 0.1017,-0.1367 0.17583,-0.1732 0.11053,-0.054 0.59284,0.054 0.70335,0 0.0741,-0.037 0.1017,-0.1368 0.17584,-0.1733 0.10485,-0.051 0.24682,0.051 0.35167,0 0.14828,-0.073 0.2034,-0.2734 0.35168,-0.3465 0.0524,-0.026 0.12341,0.026 0.17583,0 0.0742,-0.036 0.1017,-0.1368 0.17584,-0.1733 0.0524,-0.026 0.1344,0.04 0.17584,0 0.36381,-0.3585 -0.55595,0.014 0.17584,-0.3465 0.0524,-0.026 0.11722,0 0.17583,0 0.0586,-0.058 0.1017,-0.1367 0.17584,-0.1733 0.14067,-0.068 0.38684,0.068 0.52751,0 0.14828,-0.073 0.20339,-0.2735 0.35168,-0.3464 0.0524,-0.026 0.13439,0.041 0.17583,0 0.0415,-0.04 -0.0262,-0.1217 0,-0.1734 0.36589,-0.721 -0.0121,0.1853 0.35167,-0.1732 0.0415,-0.041 -0.0414,-0.1325 0,-0.1733 0.0415,-0.04 0.12342,0.026 0.17584,0 0.14828,-0.073 0.2034,-0.2734 0.35168,-0.3465 0.0524,-0.026 0.12341,0.026 0.17584,0 0.211,-0.1039 0.3165,-0.4158 0.5275,-0.5198 0.0524,-0.026 0.12341,0.026 0.17584,0 0.0741,-0.037 0.11723,-0.1155 0.17584,-0.1733 0.0586,-0.057 0.11722,-0.11542 0.17584,-0.17324 0.0926,-0.0912 0.48055,-0.42721 0.52751,-0.51978 0.0262,-0.0516 -0.0262,-0.12158 0,-0.17323 0.1055,-0.20792 0.42201,-0.31188 0.5275,-0.51978 0.0262,-0.0516 -0.0262,-0.12162 0,-0.17328 0.10551,-0.2079 0.42202,-0.31186 0.52752,-0.51978 0.0262,-0.0516 -0.0262,-0.12161 0,-0.17326 0.0741,-0.14611 0.27754,-0.20041 0.35167,-0.34652 0.0262,-0.0516 -0.0262,-0.12162 0,-0.17327 0.0741,-0.1461 0.27754,-0.20042 0.35167,-0.34652 0.0262,-0.0516 -0.0414,-0.13243 0,-0.17327 0.0415,-0.0409 0.1344,0.0409 0.17585,0 0.0414,-0.0409 -0.0415,-0.13242 0,-0.17326 0.0414,-0.0409 0.13439,0.0408 0.17584,0 0.0414,-0.0409 -0.0262,-0.12161 0,-0.17326 0.0741,-0.14611 0.27753,-0.20041 0.35167,-0.34653 0.0262,-0.0516 -0.0415,-0.13242 0,-0.17326 0.0414,-0.0408 0.13439,0.0409 0.17583,0 0.0415,-0.0408 -0.0262,-0.1216 0,-0.17326 0.1055,-0.20791 0.42201,-0.31187 0.52752,-0.51979 0.0262,-0.0516 -0.0262,-0.1216 0,-0.17325 0.0233,-0.046 0.48082,-0.4968 0.52751,-0.5198 0.0524,-0.0258 0.12341,0.0258 0.17583,0 0.21101,-0.10395 0.31651,-0.41583 0.52752,-0.51979 0.0524,-0.0258 0.12341,0.0258 0.17583,0 0.0742,-0.0365 0.1017,-0.13674 0.17584,-0.17326 0.0524,-0.0258 0.13439,0.0409 0.17584,0 0,-0.46203 -0.0586,0.0577 0.17583,-0.17326 0.0415,-0.0409 -0.0414,-0.13243 0,-0.17327 0.0415,-0.0409 0.12341,0.0258 0.17584,0 0.0741,-0.0364 0.1017,-0.13673 0.17583,-0.17326 0.0524,-0.0258 0.1344,0.0409 0.17585,0 0.0414,-0.0409 -0.0415,-0.13242 0,-0.17326 0.0414,-0.0408 0.12341,0.0258 0.17583,0 0.58317,-0.57464 -0.16578,0.0817 0.35167,-0.17326 0.73179,-0.36054 -0.18797,0.0119 0.17584,-0.34652 0.0415,-0.0409 0.13439,0.0409 0.17584,0 0.0414,-0.0409 -0.0415,-0.13244 0,-0.17327 0.0414,-0.0409 0.12341,0.0258 0.17583,0 0.14829,-0.0731 0.2034,-0.27347 0.35168,-0.34653 0.0524,-0.0259 0.12341,0.0258 0.17584,0 0.0742,-0.0364 0.11723,-0.11551 0.17583,-0.17326 0.10343,-0.10194 0.62192,-0.65293 0.70336,-0.69306 0.0524,-0.0258 0.12341,0.0258 0.17583,0 0.211,-0.10394 0.31651,-0.41582 0.52751,-0.51978 0.0524,-0.0258 0.12341,0.0258 0.17583,0 0.0742,-0.0365 0.1017,-0.13673 0.17584,-0.17326 0.10485,-0.0516 0.26879,0.0817 0.35168,0 0.0415,-0.0408 -0.0262,-0.1216 0,-0.17325 0.19439,-0.38309 0.10913,-0.0538 0.35167,-0.17327 0.17303,-0.0853 0.53033,-0.6078 0.70336,-0.69305 0.0524,-0.0259 0.13439,0.0408 0.17583,0 0.0415,-0.0409 -0.0262,-0.12161 0,-0.17327 0.36589,-0.72107 -0.0121,0.18523 0.35167,-0.17326 0.0415,-0.0408 -0.0414,-0.13241 0,-0.17325 0.0415,-0.0409 0.13439,0.0409 0.17584,0 0.0414,-0.0409 -0.0415,-0.13244 0,-0.17328 0.0414,-0.0408 0.12341,0.0258 0.17583,0 0.0742,-0.0364 0.1017,-0.13673 0.17584,-0.17326 0.0524,-0.0258 0.12342,0.0258 0.17584,0 0.14828,-0.0731 0.20339,-0.27346 0.35168,-0.34652 0.0524,-0.0258 0.12341,0.0258 0.17583,0 0.14828,-0.0731 0.2034,-0.27347 0.35167,-0.34653 0.0524,-0.0258 0.13439,0.0409 0.17584,0 0.0414,-0.0408 -0.0415,-0.13242 0,-0.17325 0.0414,-0.0409 0.1344,0.0408 0.17584,0 0.0415,-0.0409 -0.0414,-0.13243 0,-0.17327 0.0415,-0.0409 0.12342,0.0258 0.17584,0 0.0742,-0.0364 0.1017,-0.13673 0.17584,-0.17327 0.14067,-0.0692 0.38684,0.0692 0.5275,0 0.0741,-0.0364 0.1017,-0.13673 0.17584,-0.17326 0.0524,-0.0258 0.12342,0.0258 0.17584,0 0.0742,-0.0364 0.1017,-0.13672 0.17584,-0.17325 0.0524,-0.0258 0.12341,0.0258 0.17583,0 0.0741,-0.0365 0.1017,-0.13674 0.17584,-0.17327 0.0524,-0.0258 0.12341,0.0258 0.17584,0 0.14828,-0.0731 0.20339,-0.27347 0.35167,-0.34653 0.0524,-0.0258 0.12342,0.0258 0.17584,0 0.211,-0.10395 0.3165,-0.41583 0.52751,-0.51979 0.10485,-0.0516 0.26878,0.0817 0.35167,0 0.0415,-0.0409 -0.0414,-0.13242 0,-0.17326 0.0415,-0.0408 0.13439,0.0409 0.17584,0 0.0414,-0.0408 -0.0415,-0.13241 0,-0.17325 0.0414,-0.0409 0.12342,0.0258 0.17584,0 0.0741,-0.0364 0.1017,-0.13675 0.17584,-0.17327 0.0524,-0.0258 0.13439,0.0409 0.17583,0 0.0415,-0.0409 -0.0414,-0.13242 0,-0.17326 0.0423,-0.0417 0.66103,0.0417 0.70335,0 0.0414,-0.0409 -0.0415,-0.13244 0,-0.17326 0.0414,-0.0409 0.12342,0.0258 0.17584,0 0.14828,-0.0731 0.20339,-0.27348 0.35167,-0.34653 0.10485,-0.0516 0.26878,0.0817 0.35167,0 0.0415,-0.0409 -0.0262,-0.12161 0,-0.17327 0.18813,-0.37072 0.16356,0.0242 0.35168,-0.34651 0.0262,-0.0516 -0.0415,-0.13243 0,-0.17327 0.0414,-0.0408 0.1344,0.0409 0.17584,0 0.0415,-0.0408 -0.0414,-0.13243 0,-0.17327 0.0415,-0.0408 0.13439,0.0409 0.17584,0 0.0414,-0.0408 -0.0262,-0.1216 0,-0.17325 0.037,-0.0731 0.13876,-0.10018 0.17583,-0.17327 0.0262,-0.0516 -0.0262,-0.1216 0,-0.17326 0.0371,-0.0731 0.13876,-0.10018 0.17584,-0.17327 0.0349,-0.0687 -0.0359,-0.48436 0,-0.51979 0.0414,-0.0409 0.13439,0.0409 0.17583,0 0.0829,-0.0817 -0.0829,-0.26484 0,-0.34651 0.0415,-0.0409 0.13439,0.0408 0.17584,0 0.0414,-0.0409 -0.0262,-0.12161 0,-0.17327 0.0408,-0.0802 0.59993,-0.59114 0.70335,-0.69305 0.10341,-0.10195 0.62192,-0.65292 0.70334,-0.69305 0.0524,-0.0258 0.1344,0.0409 0.17585,0 0.0415,-0.0409 -0.0262,-0.1216 0,-0.17326 0.037,-0.0731 0.13876,-0.10018 0.17584,-0.17325 0.0262,-0.0516 -0.0415,-0.13244 0,-0.17328 0.0414,-0.0409 0.13439,0.0408 0.17583,0 0.0829,-0.0817 -0.0829,-0.26485 0,-0.34653 0.0415,-0.0408 0.13439,0.0408 0.17584,0 0.0414,-0.0408 -0.0415,-0.13241 0,-0.17325 0.36381,-0.35849 -0.0142,0.54781 0.35167,-0.17326 0.0227,-0.0448 0,-0.91678 0,-1.03959 0,-0.0577 -0.0262,-0.12159 0,-0.17325 0.0371,-0.0731 0.11723,-0.11551 0.17583,-0.17326 0.11723,-0.28878 0.23446,-0.57755 0.35169,-0.86632"
       id="path7208"
       inkscape:connector-curvature="0"
       inkscape:export-xdpi="207.22211"
       inkscape:export-ydpi="207.22211" />
    <path
       style="fill:none;fill-rule:evenodd;stroke:#000000;stroke-width:1px;stroke-linecap:butt;stroke-linejoin:miter;stroke-opacity:1"
       d="m 25.17997,1003.4275 c 0.296139,-0.063 0.592278,-0.1258 0.888417,-0.1888 0.177683,0 0.357785,0.03 0.53305,0 0.184746,-0.032 0.348304,-0.1559 0.533051,-0.1887 0.175265,-0.03 0.358817,0.037 0.53305,0 0.129865,-0.027 0.232401,-0.1363 0.355367,-0.1885 0.173899,-0.074 0.355367,-0.1259 0.53305,-0.1888 0.177683,-0.064 0.347638,-0.1606 0.53305,-0.1887 0.234531,-0.037 0.476204,0.035 0.710734,0 0.185412,-0.028 0.347638,-0.1605 0.53305,-0.1887 1.68175,-0.2551 -0.268286,0.324 1.421468,-0.1887 0.360177,-0.1093 0.710733,-0.2515 1.0661,-0.3774 0.177684,-0.063 0.359152,-0.1149 0.533051,-0.1886 0.367621,-0.1562 0.69848,-0.41 1.0661,-0.5662 1.767906,-0.6257 -0.418804,0.1779 0.888418,-0.3773 0.817627,-0.3474 1.694725,-0.5225 2.487568,-0.94352 0.191004,-0.10144 0.336768,-0.28806 0.53305,-0.37739 0.224458,-0.10218 0.479064,-0.10668 0.710734,-0.18869 0.125641,-0.0445 0.236911,-0.1258 0.355367,-0.18869 0.236911,-0.1258 0.473823,-0.2516 0.710734,-0.37739 0.236911,-0.1258 0.490344,-0.22136 0.710733,-0.3774 0.06969,-0.0494 0.118456,-0.12579 0.177684,-0.18869 0.118456,-0.1258 0.236911,-0.25159 0.355367,-0.37738 0.05922,-0.0628 0.102766,-0.14892 0.177683,-0.1887 0.167522,-0.089 0.383215,-0.0693 0.53305,-0.18869 0.105951,-0.0844 0.08404,-0.27793 0.177684,-0.37739 0.327457,-0.34774 0.53789,-0.34274 0.888417,-0.56608 0.945331,-0.60235 0.142944,-0.12651 1.066101,-0.94347 0.212534,-0.47945 0.748251,-0.31293 1.0661,-0.56608 0.105951,-0.0843 0.08404,-0.27793 0.177684,-0.3774 0.151002,-0.16035 0.362211,-0.24131 0.533051,-0.37738 0.199005,-0.1585 0.334044,-0.40758 0.53305,-0.56609 0.10595,-0.0843 0.241802,-0.11633 0.355367,-0.18869 0.183116,-0.11668 0.349933,-0.2607 0.53305,-0.37738 0.113564,-0.0724 0.26172,-0.0893 0.355367,-0.18869 0.151002,-0.16037 0.221963,-0.389 0.355367,-0.5661 0.10465,-0.13891 0.254854,-0.23505 0.355367,-0.37738 0.05245,-0.0743 0.513609,-1.04957 0.53305,-1.13216 0.02873,-0.12204 -0.02873,-0.25535 0,-0.37739 0.03212,-0.13644 0.145562,-0.24094 0.177684,-0.37739 0.02873,-0.12204 -0.02873,-0.25534 0,-0.37739 0.03212,-0.13644 0.118455,-0.25158 0.177683,-0.37738 0.05922,-0.1258 0.10422,-0.26037 0.177683,-0.37738 0.174305,-0.27766 0.53643,-0.47713 0.710734,-0.75479 0.146927,-0.23404 0.21909,-0.51357 0.355367,-0.75477 1.038901,-1.8388 -0.04551,0.0645 0.53305,-0.75478 0.12813,-0.18142 0.227237,-0.38465 0.355367,-0.56608 0.05026,-0.0712 0.131221,-0.11468 0.177684,-0.18869 0.07346,-0.11703 0.10422,-0.26036 0.177683,-0.37739 0.09293,-0.14803 0.262442,-0.22937 0.355367,-0.37739 0.07346,-0.11702 0.135803,-0.24396 0.177683,-0.37738 0.01873,-0.0597 -0.04188,-0.14422 0,-0.1887 0.04188,-0.0445 0.135803,0.0445 0.177684,0 0.04188,-0.0445 -0.02649,-0.13244 0,-0.1887 0.04745,-0.10086 0.439506,-0.46673 0.53305,-0.56608 0.09354,-0.0993 0.438152,-0.5157 0.53305,-0.56607 0.05298,-0.0281 0.124709,0.0281 0.177684,0 0.834324,-0.44302 0.223544,-0.28366 0.888417,-0.5661 0.520797,-0.22122 1.078355,-0.34484 1.599151,-0.56607 0.35857,-0.15232 0.307076,-0.13741 0.53305,-0.37739 0.05922,-0.0629 0.102766,-0.14891 0.177684,-0.1887 0.10595,-0.0563 0.249417,0.0563 0.355367,0 0.07491,-0.0397 0.102765,-0.1489 0.177684,-0.18869 0.05297,-0.0281 0.124707,0.0281 0.177683,0 0.21322,-0.11322 0.31983,-0.45286 0.53305,-0.56607 0.05298,-0.0281 0.124708,0.0281 0.177684,0 0.07492,-0.0398 0.102765,-0.14893 0.177683,-0.1887 0.05297,-0.0281 0.124708,0.0281 0.177684,0 0.392867,-0.20861 0.05513,-0.11711 0.177683,-0.3774 0.03746,-0.0796 0.118456,-0.12578 0.177684,-0.18869 0.09354,-0.0993 0.438152,-0.51569 0.53305,-0.56607 0.05298,-0.0281 0.135803,0.0445 0.177683,0 0.04188,-0.0445 -0.02649,-0.13244 0,-0.18869 0.08742,-0.18569 0.623311,-0.56911 0.710734,-0.75479 0.02649,-0.0563 -0.02649,-0.13243 0,-0.18869 0.04609,-0.0978 0.53305,-0.50751 0.53305,-0.56609 0,-0.12578 -0.271606,0.089 -0.355367,0 -0.04188,-0.0445 0.04188,-0.14421 0,-0.18869 -0.04188,-0.0445 -0.177683,0.0628 -0.177683,0 0,-0.0628 0.177683,-0.0628 0.177683,0 0,0.0628 -0.135802,0.0445 -0.177683,0 -0.04188,-0.0445 0.04928,-0.1538 0,-0.18869 -0.155838,-0.11033 -0.355367,-0.1258 -0.53305,-0.18869"
       id="path7212"
       inkscape:connector-curvature="0"
       inkscape:export-xdpi="207.22211"
       inkscape:export-ydpi="207.22211" />
    <path
       style="fill:none;fill-rule:evenodd;stroke:#000000;stroke-width:0.99999994px;stroke-linecap:butt;stroke-linejoin:miter;stroke-opacity:1;marker-end:url(#Arrow1Mend)"
       d="m 100.39328,974.50502 c 19.97986,-31.33587 47.72048,-1.04201 71.77755,0"
       id="path11726"
       inkscape:connector-curvature="0"
       sodipodi:nodetypes="cc"
       inkscape:export-xdpi="207.22211"
       inkscape:export-ydpi="207.22211" />
    <path
       style="fill:none;fill-rule:evenodd;stroke:#000000;stroke-width:0.99999994px;stroke-linecap:butt;stroke-linejoin:miter;stroke-opacity:1;marker-end:url(#Arrow1Mend-5)"
       d="m 175.75042,974.50502 c 19.97986,-31.33587 47.72048,-1.04201 71.77755,0"
       id="path11726-3"
       inkscape:connector-curvature="0"
       sodipodi:nodetypes="cc"
       inkscape:export-xdpi="207.22211"
       inkscape:export-ydpi="207.22211" />
    <path
       style="fill:none;fill-rule:evenodd;stroke:#000000;stroke-width:0.99999994px;stroke-linecap:butt;stroke-linejoin:miter;stroke-opacity:1;marker-end:url(#Arrow1Mend-6)"
       d="m 250.39328,974.50502 c 19.97986,-31.33587 47.72048,-1.04201 71.77755,0"
       id="path11726-0"
       inkscape:connector-curvature="0"
       sodipodi:nodetypes="cc"
       inkscape:export-xdpi="207.22211"
       inkscape:export-ydpi="207.22211" />
    <path
       style="fill:none;fill-rule:evenodd;stroke:#000000;stroke-width:0.99999994px;stroke-linecap:butt;stroke-linejoin:miter;stroke-opacity:1;marker-end:url(#Arrow1Mend-63)"
       d="m 326.10757,974.14788 c 19.97986,-31.33587 47.72048,-1.04201 71.77755,0"
       id="path11726-06"
       inkscape:connector-curvature="0"
       sodipodi:nodetypes="cc"
       inkscape:export-xdpi="207.22211"
       inkscape:export-ydpi="207.22211" />
  </g>
</svg>
